<svg xmlns="http://www.w3.org/2000/svg" viewBox="0 0 23 21" class="design-iconfont">
  <defs>
    <linearGradient x1="50%" y1="0%" x2="50%" y2="100%" id="8ndxkdsyy__forqp2ygoa">
      <stop stop-color="#29B46C" offset="0%"/>
      <stop stop-color="#3F9368" offset="100%"/>
    </linearGradient>
    <linearGradient x1="50%" y1="0%" x2="50%" y2="100%" id="8ndxkdsyy__bm7yq5aj6b">
      <stop stop-color="#29B46C" offset="0%"/>
      <stop stop-color="#3F9368" offset="100%"/>
    </linearGradient>
  </defs>
  <g fill-rule="nonzero" fill="none">
    <path d="M21.98,13.615 C21.735,13.37 21.42,13.23 21.07,13.23 L18.445,13.23 L15.505,13.23 L11.76,16.975 C11.585,17.15 11.41,17.22 11.165,17.22 C10.92,17.22 10.71,17.15 10.57,16.975 L6.825,13.23 L3.57,13.23 L1.295,13.23 C0.945,13.23 0.63,13.37 0.385,13.615 C0.14,13.86 0,14.175 0,14.525 L0,18.83 C0,19.18 0.14,19.495 0.385,19.74 C0.63,19.985 0.945,20.125 1.295,20.125 L3.57,20.125 L18.48,20.125 L21.105,20.125 C21.455,20.125 21.77,19.985 22.015,19.74 C22.26,19.495 22.4,19.18 22.4,18.83 L22.4,14.525 C22.33,14.175 22.225,13.86 21.98,13.615 Z M16.905,18.165 C16.73,18.34 16.52,18.41 16.31,18.41 C16.065,18.41 15.855,18.34 15.715,18.165 C15.54,17.99 15.47,17.78 15.47,17.57 C15.47,17.36 15.575,17.115 15.715,16.975 C15.89,16.8 16.1,16.73 16.31,16.73 C16.555,16.73 16.73,16.8 16.905,16.975 C17.08,17.15 17.15,17.36 17.15,17.57 C17.15,17.78 17.08,17.99 16.905,18.165 Z M20.37,18.165 C20.195,18.34 19.985,18.41 19.775,18.41 C19.53,18.41 19.355,18.34 19.18,18.165 C19.005,17.99 18.935,17.78 18.935,17.57 C18.935,17.36 19.005,17.115 19.18,16.975 C19.355,16.8 19.565,16.73 19.775,16.73 C20.02,16.73 20.23,16.8 20.37,16.975 C20.545,17.15 20.615,17.36 20.615,17.57 C20.615,17.78 20.545,17.99 20.37,18.165 Z" fill="url(#8ndxkdsyy__forqp2ygoa)"/>
    <path d="M6.16,10.22 L9.905,13.965 L10.5,14.56 C10.675,14.735 10.85,14.805 11.095,14.805 C11.34,14.805 11.55,14.735 11.69,14.56 L12.285,13.965 L16.03,10.22 L17.71,8.54 C17.99,8.26 18.06,7.98 17.885,7.595 C17.745,7.245 17.465,7.07 17.08,7.07 L13.615,7.07 L13.615,5.95 L13.615,5.95 L13.615,0.175 L8.435,0.175 L8.435,5.95 L8.435,5.95 L8.435,7.07 L4.97,7.07 C4.585,7.07 4.34,7.245 4.165,7.595 C4.025,7.98 4.06,8.295 4.34,8.54 L6.16,10.22 Z" fill="url(#8ndxkdsyy__bm7yq5aj6b)"/>
  </g>
</svg>
